# xmcd CD database file
#
# Track frame offsets:
#	150
#	16375
#	30913
#	48118
#	63758
#	82700
#	101048
#	117960
#	134018
#	151963
#	173340
#	193875
#	213733
#	229953
#	248095
#	269133
#	287823
#	309310
#
# Disc length: 4431 seconds
#
# Revision: 0
# Processed by: cddbd v1.5PL3 Copyright (c) Steve Scherf et al.
# Submitted via: CDex 1.50
#
DISCID=f4114d12
DTITLE=水谷麻里 - 水谷麻里コレクション
DYEAR=2004
DGENRE=JPop
TTITLE0=21世紀まで愛して
TTITLE1=銀のロケット
TTITLE2=地上に降りた天使
TTITLE3=幸福になろーね
TTITLE4=乙女日和
TTITLE5=幻のユリ
TTITLE6=春が来た
TTITLE7=待ちぼうけばかり
TTITLE8=ポキチ・ペキチ・パキチ
TTITLE9=ミラーボールのためいき
TTITLE10=バカンスの嵐
TTITLE11=灼熱…ドキュメント
TTITLE12=メビウス天国
TTITLE13=乱気流
TTITLE14=春休み
TTITLE15=音姫リバティー<銀色夜叉>
TTITLE16=あしたの黄色をつかみたい
TTITLE17=I Still Love You
EXTD=YEAR: 2004/02/21
EXTT0=
EXTT1=
EXTT2=
EXTT3=
EXTT4=
EXTT5=
EXTT6=
EXTT7=
EXTT8=
EXTT9=
EXTT10=
EXTT11=
EXTT12=
EXTT13=
EXTT14=
EXTT15=
EXTT16=
EXTT17=
PLAYORDER=
